Music_ChampionBattle:
fight04:
	channel_count 3
	channel 1, fight04_Ch1
	channel 2, fight04_Ch2
	channel 3, fight04_Ch3
;	include	group.def
;bank3d	group	G_MUSIC4
;
;;	fight04
;
;;	Converting on Thu May 27 07:59:25 1999
;
;;				by ver 1.00
;
;	public	musfight14
;musfight14:






;----------------------------------------
fight04_Ch1:
;----------------------------------------
	tempo 104
	volume 7, 7
	duty_cycle 3
	pitch_offset 2
	vibrato 18, 1, 5
; P1-1
	note_type 12, 11, 5
	octave 2
	note A#,1
	rest 7
	note A#,1
	rest 7
; P1-2
	note A#,1
	rest 7
	note A#,1
	rest 3
	note B_,4
; P1-3
	note A#,1
	rest 1
	note A#,1
	rest 5
	note A#,1
	rest 1
	note A#,1
	rest 5
; P1-4
	note A#,1
	rest 1
	note A#,1
	rest 5
	note A#,1
	rest 1
	note A#,1
	rest 1
	octave 3
	note D#,4
; P1-5
	octave 2
	note A#,1
	rest 1
	note A#,1
	rest 5
	note A#,1
	rest 1
	note A#,1
	rest 5
; P1-6
	note A#,1
	rest 1
	note A#,1
	rest 5
	note A#,1
	rest 1
	note A#,1
	rest 1
	octave 3
	note D#,4
; P1-7
	octave 2
	note A#,1
	rest 1
	note A#,1
	rest 5
	note A#,1
	rest 1
	note A#,1
	rest 5
; P1-8
	note A#,1
	rest 1
	note A#,1
	rest 5
	note A#,1
	rest 1
	note A#,1
	rest 1
	octave 3
	note E_,4
; P1-9
	octave 2
	note A#,1
	rest 1
	note A#,1
	rest 1
	octave 3
	note D#,4
	octave 2
	note A#,1
	rest 1
	note A#,1
	rest 1
	octave 3
	note D#,4
; P1-10
	octave 2
	note A#,1
	rest 1
	note A#,1
	rest 1
	octave 3
	note D#,4
	octave 2
	note A#,1
	rest 1
	note A#,1
	rest 1
	note B_,4
; P1-11
	note A#,1
	rest 1
	note A#,1
	rest 1
	octave 3
	note D#,4
	octave 2
	note A#,1
	rest 1
	note A#,1
	rest 1
	octave 3
	note D#,4
; P1-12
	octave 2
	note A#,1
	rest 1
	note A#,1
	rest 1
	octave 3
	note D#,4
	octave 2
	note A#,1
	rest 1
	note A#,1
	rest 1
	octave 3
	note D#,4
; P1-13
	octave 2
	note A#,1
	rest 1
	note A#,1
	rest 1
	octave 3
	note D#,4
	octave 2
	note A#,1
	rest 1
	note A#,1
	rest 1
	octave 3
	note D#,4
; P1-14
	octave 2
	note A#,1
	rest 1
	note A#,1
	rest 1
	octave 3
	note D#,4
	octave 2
	note A#,1
	rest 1
	note A#,1
	rest 1
	note B_,4
; P1-15
	note A#,1
	rest 1
	note A#,1
	rest 1
	octave 3
	note D#,4
	octave 2
	note A#,1
	rest 1
	note A#,1
	rest 1
	octave 3
	note E_,4
; P1-16
	octave 2
	note A#,1
	rest 1
	note A#,1
	rest 1
	octave 3
	note F#,4
	octave 2
	note A#,1
	rest 1
	note A#,1
	rest 1
	octave 3
	note G#,4
; P1-17
	note A#,8
	octave 2
	note A#,8
; P1-18
	octave 3
	note B_,12
	note A#,1
	note B_,1
	octave 4
	note C_,1
	note C#,1
.loop10
; P1-19
	octave 3
	note D#,2
	note A#,2
	note D#,2
	note F#,4
	note F_,2
	note E_,2
	note B_,2
; P1-20
	note F#,2
	note A#,2
	note F_,2
	note A_,2
	note E_,2
	note G#,2
	note D#,2
	note G_,2
; P1-21
	note E_,1
	rest 1
	note E_,1
	rest 1
	note F#,4
	note E_,1
	rest 1
	note E_,1
	rest 1
	note G#,4
; P1-22
	note E_,1
	rest 1
	note E_,1
	rest 1
	note G#,4
	note E_,1
	rest 1
	note E_,1
	rest 1
	note B_,4
; P1-23
	note D#,2
	note A#,2
	note D#,2
	note F#,4
	note F_,2
	note E_,2
	note B_,2
; P1-24
	note F#,2
	note A#,2
	note F_,2
	note A_,2
	note E_,2
	note G#,2
	note D#,2
	note G_,2
; P1-25
	note E_,1
	rest 1
	note E_,1
	rest 1
	note F#,4
	note E_,1
	rest 1
	note E_,1
	rest 1
	note G#,4
; P1-26
	note E_,1
	rest 1
	note E_,1
	rest 1
	note B_,4
	note E_,1
	rest 1
	note E_,1
	rest 1
	octave 4
	note E_,4
; P1-27
	octave 3
	note A#,1
	rest 1
	note A#,1
	rest 3
	note A#,1
	rest 3
	note A#,1
	rest 3
	note A#,1
	rest 1
; P1-28
	rest 2
	note A#,1
	rest 3
	note A#,1
	rest 1
	note B_,4
	note G#,4
; P1-29
	note A#,1
	rest 1
	note A#,1
	rest 3
	note A#,1
	rest 3
	note A#,1
	rest 3
	note A#,1
	rest 1
; P1-30
	rest 2
	note A#,1
	rest 3
	note A#,1
	rest 1
	octave 4
	note D_,4
	note D_,4
; P1-31
	octave 3
	note A#,8
	octave 2
	note A#,8
; P1-32
	octave 3
	note F#,8
	octave 2
	note F#,8
; P1-33
	note B_,16
; P1-34
	note B_,16
; P1-35
	octave 3
	note C#,16
; P1-36
	note D#,16
; P1-37
	octave 4
	note F#,4
	note F_,4
	note E_,4
	note D#,4
; P1-38
	note D_,4
	note C#,4
	note F#,4
	note F#,4
; P1-39
	note F#,4
	note F_,4
	note E_,4
	note D#,4
; P1-40
	note F#,2
	note G#,2
	note D#,2
	note E_,2
	note F#,4
	note F#,4
; P1-41
	rest 16
; P1-42
	octave 3
	note F#,8
	note E_,4
	note E_,4
; P1-43
	note D#,16
; P1-44
	note C#,16
; P1-45
	octave 2
	note A#,1
	rest 1
	note A#,1
	rest 1
	octave 3
	note D#,4
	octave 2
	note A#,1
	rest 1
	note A#,1
	rest 1
	octave 3
	note D#,4
; P1-46
	octave 2
	note A#,1
	rest 1
	note A#,1
	rest 1
	octave 3
	note D#,4
	octave 2
	note A#,1
	rest 1
	note A#,1
	rest 1
	octave 3
	note D#,4
; P1-47
	note C_,1
	rest 1
	note C_,1
	rest 1
	note D#,4
	note C_,1
	rest 1
	note C_,1
	rest 1
	note D#,4
; P1-48
	note C_,1
	rest 1
	note C_,1
	rest 1
	note F#,4
	note C_,1
	rest 1
	note C_,1
	rest 1
	note G#,4
; P1-49
	note D#,1
	rest 1
	note D#,1
	rest 1
	note A#,4
	note D#,1
	rest 1
	note D#,1
	rest 1
	note B_,4
; P1-50
	note D#,1
	rest 1
	note D#,1
	rest 1
	octave 4
	note C#,4
	octave 3
	note D#,1
	rest 1
	note D#,1
	rest 1
	note B_,4
; P1-51
	note D#,1
	rest 1
	note D#,1
	rest 1
	note A#,4
	note D#,1
	rest 1
	note D#,1
	rest 1
	note B_,4
; P1-52
	note D#,1
	rest 1
	note D#,1
	rest 1
	octave 4
	note C#,4
	octave 3
	note D#,1
	rest 1
	note D#,1
	rest 1
	octave 4
	note D_,4
	db sound_loop_cmd, 0
	dw .loop10
;----------------------------------------
fight04_Ch2:
;----------------------------------------
	duty_cycle 3
	vibrato 8, 3, 6
	pitch_offset 1
; P2-1
	note_type 12, 12, 7
	octave 3
	note D#,1
	rest 7
	note D#,1
	rest 7
; P2-2
	note D#,1
	rest 7
	note D#,1
	rest 3
	note D_,4
; P2-3
	note D#,1
	rest 1
	note D#,1
	rest 5
	note D#,1
	rest 1
	note D#,1
	rest 5
; P2-4
	note D#,1
	rest 1
	note D#,1
	rest 5
	note D#,1
	rest 1
	note D#,1
	rest 1
	note A#,4
; P2-5
	note D#,1
	rest 1
	note D#,1
	rest 5
	note D#,1
	rest 1
	note D#,1
	rest 5
; P2-6
	note D#,1
	rest 1
	note D#,1
	rest 5
	note D#,1
	rest 1
	note D#,1
	rest 1
	note B_,4
; P2-7
	note D#,1
	rest 1
	note D#,1
	rest 5
	note D#,1
	rest 1
	note D#,1
	rest 5
; P2-8
	note D#,1
	rest 1
	note D#,1
	rest 5
	note D#,1
	rest 1
	note D#,1
	rest 1
	octave 4
	note C#,4
; P2-9
	octave 3
	note D#,1
	rest 1
	note D#,1
	rest 1
	note A#,4
	note D#,1
	rest 1
	note D#,1
	rest 1
	note B_,4
; P2-10
	note D#,1
	rest 1
	note D#,1
	rest 1
	note A#,4
	note D#,1
	rest 1
	note D#,1
	rest 1
	note D_,4
; P2-11
	note D#,1
	rest 1
	note D#,1
	rest 1
	note A#,4
	note D#,1
	rest 1
	note D#,1
	rest 1
	note B_,4
; P2-12
	note D#,1
	rest 1
	note D#,1
	rest 1
	note A#,4
	note D#,1
	rest 1
	note D#,1
	rest 1
	note F_,4
; P2-13
	note D#,1
	rest 1
	note D#,1
	rest 1
	note A#,4
	note D#,1
	rest 1
	note D#,1
	rest 1
	note B_,4
; P2-14
	note D#,1
	rest 1
	note D#,1
	rest 1
	note A#,4
	note D#,1
	rest 1
	note D#,1
	rest 1
	note D_,4
; P2-15
	note D#,1
	rest 1
	note D#,1
	rest 1
	note A#,4
	note D#,1
	rest 1
	note D#,1
	rest 1
	note B_,4
; P2-16
	note D#,1
	rest 1
	note D#,1
	rest 1
	octave 4
	note C_,4
	octave 3
	note D#,1
	rest 1
	note D#,1
	rest 1
	octave 4
	note C#,4
; P2-17
	note D#,8
	octave 3
	note D#,8
; P2-18
	octave 4
	note E_,16
.loop20
; P2-19
	note D#,6
	octave 3
	note A#,6
	octave 4
	note D#,2
	note D_,2
; P2-20
	note C#,4
	note C_,4
	octave 3
	note B_,4
	note A#,4
; P2-21
	note B_,8
	octave 4
	note E_,8
; P2-22
	octave 3
	note G#,1
	rest 1
	note G#,1
	rest 1
	note B_,4
	note G#,1
	rest 1
	note G#,1
	rest 1
	octave 4
	note C#,4
; P2-23
	note D#,6
	octave 3
	note A#,6
	octave 4
	note D#,2
	note D_,2
; P2-24
	note C#,4
	note C_,4
	octave 3
	note B_,4
	note A#,2
	note B_,2
; P2-25
	octave 4
	note E_,8
	note G#,8
; P2-26
	note E_,8
	note B_,8
; P2-27
	note D#,1
	rest 1
	note D#,1
	rest 3
	note D#,1
	rest 3
	note D#,1
	rest 3
	note D#,1
	rest 1
; P2-28
	rest 2
	note D#,1
	rest 3
	note D#,1
	rest 1
	note E_,4
	note E_,4
; P2-29
	note D#,1
	rest 1
	note D#,1
	rest 3
	note D#,1
	rest 3
	note D#,1
	rest 3
	note D#,1
	rest 1
; P2-30
	rest 2
	note D#,1
	rest 3
	note D#,1
	rest 1
	note F#,4
	note F#,4
; P2-31
	note D#,8
	octave 3
	note D#,8
; P2-32
	octave 4
	note C#,8
	octave 3
	note C#,8
; P2-33
	note D#,16
; P2-34
	note D#,16
; P2-35
	note F_,16
; P2-36
	note F#,16
; P2-37
	octave 5
	note D#,4
	note D_,4
	note C#,4
	note C_,4
; P2-38
	note D#,2
	note D_,2
	note C#,2
	note C_,2
	octave 4
	note B_,4
	note B_,4
; P2-39
	octave 5
	note D#,4
	note D_,4
	note C#,4
	note C_,4
; P2-40
	note D#,2
	note D_,2
	note C#,2
	note C_,2
	octave 4
	note B_,4
	note B_,4
; P2-41
	octave 3
	note D#,16
; P2-42
	note B_,16
; P2-43
	note A#,16
; P2-44
	note G#,16
; P2-45
	note D#,1
	rest 1
	note D#,1
	rest 1
	note A#,4
	note D#,1
	rest 1
	note D#,1
	rest 1
	note B_,4
; P2-46
	note D#,1
	rest 1
	note D#,1
	rest 1
	note A#,4
	note D#,1
	rest 1
	note D#,1
	rest 1
	note A_,4
; P2-47
	note D#,1
	rest 1
	note D#,1
	rest 1
	note A#,4
	note D#,1
	rest 1
	note D#,1
	rest 1
	note B_,4
; P2-48
	note D#,1
	rest 1
	note D#,1
	rest 1
	octave 4
	note C#,4
	octave 3
	note D#,1
	rest 1
	note D#,1
	rest 1
	octave 4
	note D_,4
; P2-49
	note D#,8
	note E_,8
; P2-50
	note F#,8
	note E_,8
; P2-51
	note D#,8
	note E_,8
; P2-52
	note F#,8
	note G#,8
	db sound_loop_cmd, 0
	dw .loop20
;----------------------------------------
fight04_Ch3:
;----------------------------------------
; P3-1
	note_type 12, 2, 4
	octave 3
	note D#,1
	rest 7
	note D#,1
	rest 7
; P3-2
	note D#,1
	rest 7
	note D#,1
	rest 3
	note E_,4
; P3-3
	note D#,1
	rest 1
	note D#,1
	rest 5
	note D#,1
	rest 1
	note D#,1
	rest 5
; P3-4
	note D#,1
	rest 1
	note D#,1
	rest 5
	note D#,1
	rest 1
	note D#,1
	rest 1
	note B_,4
; P3-5
	note D#,1
	rest 1
	note D#,1
	rest 5
	note D#,1
	rest 1
	note D#,1
	rest 5
; P3-6
	note D#,1
	rest 1
	note D#,1
	rest 5
	note D#,1
	rest 1
	note D#,1
	rest 1
	note B_,4
; P3-7
	note D#,1
	rest 1
	note D#,1
	rest 5
	note D#,1
	rest 1
	note D#,1
	rest 5
; P3-8
	note D#,1
	rest 1
	note D#,1
	rest 5
	note D#,1
	rest 1
	note D#,1
	rest 1
	note B_,4
; P3-9
	note D#,1
	rest 1
	note D#,1
	rest 1
	note A#,4
	note D#,1
	rest 1
	note D#,1
	rest 1
	note B_,4
; P3-10
	note D#,1
	rest 1
	note D#,1
	rest 1
	note A#,4
	note D#,1
	rest 1
	note D#,1
	rest 1
	note D_,4
; P3-11
	note D#,1
	rest 1
	note D#,1
	rest 1
	note A#,4
	note D#,1
	rest 1
	note D#,1
	rest 1
	note B_,4
; P3-12
	note D#,1
	rest 1
	note D#,1
	rest 1
	note A#,4
	note D#,1
	rest 1
	note D#,1
	rest 1
	note A_,4
; P3-13
	note D#,1
	rest 1
	note D#,1
	rest 1
	note A#,4
	note D#,1
	rest 1
	note D#,1
	rest 1
	note B_,4
; P3-14
	note D#,1
	rest 1
	note D#,1
	rest 1
	note A#,4
	note D#,1
	rest 1
	note D#,1
	rest 1
	note D_,4
; P3-15
	note D#,1
	rest 1
	note D#,1
	rest 1
	note A#,4
	note D#,1
	rest 1
	note D#,1
	rest 1
	note A#,4
; P3-16
	note D#,1
	rest 1
	note D#,1
	rest 1
	note B_,4
	note D#,1
	rest 1
	note D#,1
	rest 1
	octave 4
	note C#,4
; P3-17
	note D#,8
	octave 3
	note D#,8
; P3-18
	note B_,4
	note G_,2
	note B_,2
	note F#,2
	note A#,2
	note F_,2
	note A_,2
.loop30
; P3-19
	note D#,2
	note A#,2
	note D#,2
	note A#,2
	note D#,2
	note A#,2
	note D#,2
	note A#,2
; P3-20
	note D#,2
	note A#,2
	note D#,2
	note A#,2
	note D#,2
	note A#,2
	note D#,2
	note A#,2
; P3-21
	note E_,2
	note B_,2
	note E_,2
	note B_,2
	note E_,2
	note B_,2
	note E_,2
	note B_,2
; P3-22
	note E_,2
	note B_,2
	note E_,2
	octave 4
	note C_,2
	octave 3
	note A_,2
	note B_,2
	note G_,2
	note A_,2
; P3-23
	note D#,2
	note A#,2
	note D#,2
	note A#,2
	note D#,2
	note A#,2
	note D#,2
	note A#,2
; P3-24
	note D#,2
	note A#,2
	note D#,2
	note A#,2
	note D#,2
	note A#,2
	note D#,2
	note A#,2
; P3-25
	note E_,2
	note B_,2
	note E_,2
	note B_,2
	note E_,2
	note B_,2
	note E_,2
	note B_,2
; P3-26
	note E_,2
	note B_,2
	note E_,2
	note B_,2
	note E_,2
	note B_,2
	note E_,2
	note B_,2
; P3-27
	note D#,2
	note F#,2
	note D#,2
	note F#,2
	note D#,2
	octave 4
	note D_,2
	note C#,2
	note C_,2
; P3-28
	octave 3
	note D#,2
	note E_,2
	note D#,2
	note E_,2
	note D#,2
	octave 4
	note D_,2
	note C#,2
	note C_,2
; P3-29
	octave 3
	note D#,2
	note F#,2
	note D#,2
	note F#,2
	note D#,2
	octave 4
	note D_,2
	note C#,2
	note C_,2
; P3-30
	octave 3
	note D#,2
	note A#,2
	note D#,2
	note A#,2
	note D#,2
	octave 4
	note D_,2
	note C#,2
	note C_,2
; P3-31
	octave 3
	note A#,8
	note D#,8
; P3-32
	note B_,8
	note D#,8
; P3-33
	note D#,2
	note F#,2
	note D#,2
	note F#,2
	note D#,2
	note F#,2
	note D#,2
	note F#,2
; P3-34
	note D#,2
	note F#,2
	note D#,2
	note F#,2
	note D#,2
	note F#,2
	note D#,2
	note F#,2
; P3-35
	note D#,2
	note F#,2
	note D#,2
	note F#,2
	note D#,2
	note F#,2
	note D#,2
	note F#,2
; P3-36
	note D#,2
	note F#,2
	note D#,2
	note F#,2
	note D#,2
	note F#,2
	note D#,2
	note F#,2
; P3-37
	note E_,2
	note B_,2
	note E_,2
	note B_,2
	note E_,2
	note B_,2
	octave 4
	note D#,2
	note E_,2
; P3-38
	octave 3
	note E_,2
	note B_,2
	octave 4
	note D#,2
	note E_,2
	note F#,2
	octave 3
	note B_,2
	octave 4
	note D#,2
	note E_,2
; P3-39
	octave 3
	note E_,2
	note B_,2
	note E_,2
	note B_,2
	note E_,2
	note B_,2
	octave 4
	note D#,2
	note E_,2
; P3-40
	octave 3
	note E_,2
	note B_,2
	note E_,2
	note B_,2
	note E_,2
	note B_,2
	note E_,2
	note B_,2
; P3-41
	note D#,2
	note A#,2
	note D#,2
	note A#,2
	note D#,2
	note A#,2
	note D#,2
	note A#,2
; P3-42
	note D#,2
	note A#,2
	note B_,2
	octave 4
	note D#,2
	octave 3
	note D#,2
	rest 2
	note D#,2
	rest 2
; P3-43
	note E_,2
	note B_,2
	note E_,2
	note B_,2
	note E_,2
	note B_,2
	note E_,2
	note B_,2
; P3-44
	note E_,2
	note B_,2
	octave 4
	note C#,2
	note E_,2
	octave 3
	note E_,2
	rest 2
	note E_,2
	rest 2
; P3-45
	note D#,2
	note G#,2
	note D#,2
	note G#,2
	note D#,2
	note G#,2
	note D#,2
	note G#,2
; P3-46
	note D#,2
	note G#,2
	note D#,2
	note G#,2
	note D#,2
	note G#,2
	note D#,2
	note G#,2
; P3-47
	note D#,2
	note A#,2
	note D#,2
	note A#,2
	note D#,2
	note A#,2
	note D#,2
	note A#,2
; P3-48
	note D#,2
	note A#,2
	note D#,2
	note A#,2
	note D#,2
	note A#,2
	note B_,2
	note A#,2
; P3-49
	note D#,2
	note A#,2
	octave 4
	note D_,2
	note D#,2
	octave 3
	note D#,2
	note A#,2
	octave 4
	note D_,2
	note D#,2
; P3-50
	octave 3
	note D#,2
	note A#,2
	octave 4
	note D_,2
	note D#,2
	octave 3
	note D#,2
	note A#,2
	octave 4
	note D_,2
	note D#,2
; P3-51
	octave 3
	note D#,2
	note A#,2
	octave 4
	note D_,2
	note D#,2
	octave 3
	note D#,2
	note A#,2
	octave 4
	note D_,2
	note D#,2
; P3-52
	octave 3
	note D#,2
	note A#,2
	octave 4
	note D_,2
	note D#,2
	note C#,2
	octave 3
	note B_,2
	note A#,2
	note G#,2
	db sound_loop_cmd, 0
	dw .loop30


