Music_RivalBattle:
fight05:
	channel_count 3
	channel 1, fight05_Ch1
	channel 2, fight05_Ch2
	channel 3, fight05_Ch3
;	include	group.def
;bank3d	group	G_MUSIC4
;
;;	fight05
;
;;	Converting on Thu May 27 07:59:26 1999
;
;;				by ver 1.00
;
;	public	musfight15
;musfight15:






;----------------------------------------
fight05_Ch1:
;----------------------------------------
	tempo 102
	volume 7, 7
	duty_cycle 3
	pitch_offset 2
	vibrato 8, 1, 5
; P1-1
	note_type 12, 11, 2
	octave 3
	note F#,2
	note A#,4
	note_type 12, 11, 7
	note A#,10
; P1-2
	note_type 12, 11, 2
	note F#,2
	octave 4
	note C#,4
	note_type 12, 11, 7
	note C#,6
	note E_,4
; P1-3
	note_type 12, 11, 2
	octave 2
	note A#,6
	note_type 12, 11, 7
	octave 3
	note C#,6
	note_type 12, 11, 2
	note D#,4
; P1-4
	note_type 12, 11, 2
	octave 2
	note A#,6
	note_type 12, 11, 7
	octave 3
	note C#,6
	note_type 12, 11, 2
	note D#,4
; P1-5
	note_type 12, 11, 2
	octave 2
	note A#,6
	note_type 12, 11, 7
	octave 3
	note C#,6
	note_type 12, 11, 2
	note D#,4
; P1-6
	note_type 12, 11, 2
	octave 2
	note A#,2
	octave 3
	note C#,4
	note_type 12, 11, 7
	note C#,10
; P1-7
	note_type 12, 11, 2
	note G#,6
	note_type 12, 11, 7
	note B_,6
	note_type 12, 11, 2
	octave 4
	note C#,4
; P1-8
	note_type 12, 11, 2
	octave 3
	note G#,6
	note_type 12, 11, 7
	note B_,6
	note_type 12, 11, 2
	octave 4
	note C#,4
; P1-9
	note_type 12, 11, 2
	octave 3
	note G#,6
	note_type 12, 11, 7
	note B_,6
	note_type 12, 11, 2
	octave 4
	note C#,4
; P1-10
	note_type 12, 11, 2
	octave 3
	note G#,2
	note B_,4
	note_type 12, 4, 13
	note B_,10
.loop10
	note_type 12, 11, 7
; P1-11
	note A#,6
	note F#,6
	note D#,4
; P1-12
	note F_,4
	note F#,4
	note G#,2
	note A#,6
; P1-13
	note_type 12, 11, 2
	note F_,1
	note D#,1
	note C#,1
	note D#,1
	note_type 12, 11, 7
	note F_,4
	note_type 12, 11, 2
	note G#,1
	note F#,1
	note F_,1
	note F#,1
	note_type 12, 11, 7
	note G#,4
; P1-14
	note_type 12, 11, 6
	note G#,2
	note A#,2
	note B_,2
	note A#,2
	note B_,2
	octave 4
	note C#,2
	octave 3
	note B_,2
	octave 4
	note E_,2
; P1-15
	note_type 12, 11, 7
	octave 3
	note A#,6
	note F#,6
	note A#,4
; P1-16
	octave 4
	note C#,4
	octave 3
	note B_,4
	note A#,2
	note G#,6
; P1-17
	note F_,6
	octave 4
	note C#,6
	octave 3
	note G#,4
; P1-18
	note_type 12, 11, 5
	note C#,2
	note F_,2
	note G#,2
	octave 4
	note C_,2
	note C#,2
	octave 3
	note G#,2
	note F_,2
	note G#,2
; P1-19
	note_type 12, 11, 7
	note F#,10
	note_type 12, 11, 4
	octave 2
	note B_,2
	octave 3
	note D#,2
	note F#,2
; P1-20
	note_type 12, 11, 7
	note F_,4
	note D#,4
	note C#,2
	note D#,6
; P1-21
	note_type 12, 10, 0
	note F_,8
	note_type 12, 10, 7
	note F_,8
; P1-22
	note_type 12, 10, 0
	octave 2
	note A#,8
	note_type 12, 10, 7
	note A#,8
; P1-23
	note_type 12, 11, 7
	octave 3
	note F#,10
	note_type 12, 11, 5
	octave 2
	note B_,2
	octave 3
	note D#,2
	note F#,2
; P1-24
	note F_,2
	note D#,2
	note C#,2
	note D#,2
	note G#,2
	note F#,2
	note F_,2
	note G#,2
; P1-25
	note_type 12, 10, 0
	note A#,16
; P1-26
	note_type 12, 10, 7
	note A#,16
; P1-27
	note_type 12, 10, 0
	note B_,8
	note_type 12, 10, 7
	note B_,4
	note_type 12, 11, 7
	note G#,4
; P1-28
	note_type 12, 11, 5
	octave 4
	note E_,2
	note D#,2
	note C#,2
	octave 3
	note B_,2
	octave 4
	note F#,2
	note E_,2
	note D#,2
	note C#,2
; P1-29
	octave 3
	note A#,2
	note E_,2
	note A#,2
	octave 4
	note D#,2
	note E_,2
	note D#,2
	octave 3
	note A#,2
	octave 4
	note D#,2
; P1-30
	octave 3
	note A#,2
	octave 4
	note D#,2
	note E_,2
	note D#,2
	octave 3
	note A#,2
	note D#,2
	note A#,2
	octave 4
	note D#,2
; P1-31
	octave 3
	note A#,2
	note E_,2
	note A#,2
	octave 4
	note D#,2
	note E_,2
	note D#,2
	octave 3
	note A#,2
	octave 4
	note D#,2
; P1-32
	octave 3
	note A#,2
	octave 4
	note D#,2
	note E_,2
	note D#,2
	octave 3
	note A#,2
	note D#,2
	note A#,2
	octave 4
	note D#,2
; P1-33
	note_type 12, 9, 4
	octave 3
	note D#,8
	octave 2
	note A#,8
; P1-34
	octave 3
	note G_,8
	note F_,8
; P1-35
	note_type 12, 9, 6
	octave 2
	note G#,8
	note A#,8
; P1-36
	note B_,8
	octave 3
	note C#,8
; P1-37
	note_type 12, 11, 7
	octave 4
	note D#,8
	octave 3
	note A#,8
; P1-38
	octave 4
	note G_,8
	note F_,8
; P1-39
	octave 3
	note G#,8
	note A#,8
; P1-40
	note B_,8
	octave 4
	note C#,8
; P1-41
	note_type 12, 10, 0
	note D#,8
	note_type 12, 10, 7
	note D#,8
; P1-42
	note_type 12, 10, 0
	octave 3
	note G_,8
	note_type 12, 10, 7
	note G_,8
; P1-43
	note_type 12, 11, 7
	note D#,8
	note C#,8
; P1-44
	note D#,4
	note C#,4
	octave 2
	note B_,4
	octave 3
	note C#,4
; P1-45
	note_type 12, 12, 7
	octave 2
	note A#,6
	octave 3
	note C#,6
	note D#,4
; P1-46
	note E_,6
	note D#,6
	note C#,4
; P1-47
	note G#,6
	note E_,6
	note D#,4
; P1-48
	note C#,6
	note D#,6
	note D_,4
; P1-49
	octave 2
	note G#,6
	note B_,6
	octave 3
	note C#,4
; P1-50
	note D_,6
	note C#,6
	octave 2
	note B_,4
; P1-51
	octave 3
	note F#,6
	note D_,6
	note C#,4
; P1-52
	octave 2
	note B_,6
	octave 3
	note C#,10
	db sound_loop_cmd, 0
	dw .loop10
;----------------------------------------
fight05_Ch2:
;----------------------------------------
	duty_cycle 3
	vibrato 8, 3, 6
	pitch_offset 1
; P2-1
	note_type 12, 12, 2
	octave 4
	note E_,1
	note D#,1
	note D_,1
	note C#,1
	note D_,1
	note C#,1
	note C_,1
	octave 3
	note B_,1
	octave 4
	note C_,1
	octave 3
	note B_,1
	note A#,1
	note A_,1
	note A#,1
	note A_,1
	note G#,1
	note G_,1
; P1-2
	note G#,1
	note G_,1
	note F#,1
	note F_,1
	note F#,1
	note F_,1
	note E_,1
	note D#,1
	note E_,1
	note D#,1
	note D_,1
	note C#,1
	note D_,1
	note C#,1
	note C_,1
	octave 2
	note B_,1
; P2-3
	note_type 12, 12, 2
	octave 4
	note D#,6
	note_type 12, 12, 7
	octave 3
	note F#,6
	note_type 12, 12, 2
	note G#,4
; P2-4
	note_type 12, 12, 2
	note D#,6
	note_type 12, 12, 7
	note F#,6
	note_type 12, 12, 2
	note G#,4
; P2-5
	note_type 12, 12, 2
	note D#,6
	note_type 12, 12, 7
	note F#,6
	note_type 12, 12, 2
	note G#,4
; P2-6
	note_type 12, 12, 2
	note D#,2
	note F#,4
	note_type 12, 12, 7
	note F#,8
	note_type 12, 10, 2
	note B_,1
	octave 4
	note C_,1
; P2-7
	note_type 12, 12, 2
	note C#,6
	note_type 12, 12, 7
	note E_,6
	note_type 12, 12, 2
	note F#,4
; P2-8
	note_type 12, 12, 2
	note C#,6
	note_type 12, 12, 7
	note E_,6
	note_type 12, 12, 2
	note F#,4
; P2-9
	note_type 12, 12, 2
	note C#,6
	note_type 12, 12, 7
	note E_,6
	note_type 12, 12, 2
	note F#,4
; P2-10
	note_type 12, 12, 2
	note C#,2
	note E_,4
	note_type 12, 11, 0
	note E_,4
	note_type 12, 11, 7
	note E_,6
.loop20
	note_type 12, 12, 7
; P2-11
	note D#,10
	note_type 12, 12, 4
	octave 3
	note A#,2
	octave 4
	note D#,2
	note F#,2
; P2-12
	note_type 12, 12, 5
	note F_,4
	note D#,4
	note_type 12, 12, 2
	note C#,2
	note_type 12, 12, 7
	note D#,6
; P2-13
	note_type 12, 11, 0
	note F_,8
	note_type 12, 11, 7
	note F_,8
; P2-14
	note_type 12, 11, 0
	note G#,8
	note_type 12, 11, 7
	note G#,8
; P2-15
	note_type 12, 12, 7
	note D#,10
	note_type 12, 12, 4
	octave 3
	note A#,2
	octave 4
	note D#,2
	note F#,2
; P2-16
	note_type 12, 12, 6
	note F_,4
	note D#,4
	note C#,2
	note_type 12, 12, 7
	note D#,6
; P2-17
	note_type 12, 11, 0
	note F_,8
	note_type 12, 11, 7
	note F_,8
; P2-18
	note_type 12, 4, 14
	note G#,8
	note_type 12, 11, 7
	note G#,8
; P2-19
	note_type 12, 11, 0
	octave 3
	note B_,10
	note_type 12, 11, 7
	note B_,6
; P2-20
	note_type 12, 11, 0
	octave 4
	note C#,8
	octave 3
	note B_,8
; P2-21
	note_type 12, 11, 0
	note A#,10
	note_type 12, 11, 7
	note A#,6
; P2-22
	note_type 12, 2, 15
	note D#,10
	note_type 12, 11, 7
	note D#,6
; P2-23
	note_type 12, 11, 0
	note B_,10
	note_type 12, 11, 7
	note B_,6
; P2-24
	note_type 12, 12, 7
	octave 4
	note C#,8
	octave 3
	note B_,8
; P2-25
	note_type 12, 11, 0
	octave 4
	note D#,16
; P2-26
	note_type 12, 11, 7
	note D#,16
; P2-27
	note_type 12, 11, 0
	note E_,4
	note_type 12, 11, 7
	note E_,6
	note_type 12, 12, 7
	note E_,2
	note G#,2
	note B_,2
; P2-28
	octave 5
	note C#,8
	octave 4
	note B_,8
; P2-29
	note_type 12, 11, 0
	note A#,10
	note_type 12, 11, 7
	note A#,6
; P2-30
	note_type 12, 11, 0
	note A_,10
	note_type 12, 11, 7
	note A_,6
; P2-31
	note_type 12, 11, 0
	note G#,10
	note_type 12, 11, 7
	note G#,6
; P2-32
	note_type 12, 11, 0
	note G_,10
	note_type 12, 11, 7
	note G_,6
; P2-33
	note_type 12, 10, 4
	octave 3
	note G_,8
	note D#,8
; P2-34
	note A#,8
	note G#,8
; P2-35
	note_type 12, 10, 6
	octave 2
	note B_,8
	octave 3
	note C#,8
; P2-36
	note D#,8
	note F_,8
; P2-37
	note_type 12, 12, 7
	octave 4
	note G_,8
	note D#,8
; P2-38
	note A#,8
	note G#,8
; P2-39
	octave 3
	note B_,8
	octave 4
	note C#,8
; P2-40
	note D#,8
	note F_,8
; P2-41
	note_type 12, 11, 0
	note G_,16
; P2-42
	note D#,16
; P2-43
	octave 3
	note B_,8
	note A#,8
; P2-44
	note G#,8
	note_type 12, 12, 7
	note F_,8
; P2-45
	note_type 12, 12, 2
	note A#,6
	note_type 12, 12, 7
	octave 4
	note C#,6
	note_type 12, 12, 2
	note D#,4
; P2-46
	note_type 12, 12, 2
	octave 3
	note A#,6
	note_type 12, 12, 7
	octave 4
	note C#,6
	note_type 12, 12, 2
	note D#,4
; P2-47
	note_type 12, 12, 2
	octave 3
	note A#,6
	note_type 12, 12, 7
	octave 4
	note C#,6
	note_type 12, 12, 2
	note D#,4
; P2-48
	note_type 12, 12, 2
	octave 3
	note A#,2
	octave 4
	note C#,4
	note_type 12, 11, 7
	note C#,6
	note_type 12, 9, 10
	note C#,4
; P2-49
	note_type 12, 12, 2
	octave 3
	note G#,6
	note_type 12, 12, 7
	note B_,6
	note_type 12, 12, 2
	octave 4
	note C#,4
; P2-50
	note_type 12, 12, 2
	octave 3
	note G#,6
	note_type 12, 12, 7
	note B_,6
	note_type 12, 12, 2
	octave 4
	note C#,4
; P2-51
	note_type 12, 12, 2
	octave 3
	note G#,6
	note_type 12, 12, 7
	note B_,6
	note_type 12, 12, 2
	octave 4
	note C#,4
; P2-52
	note_type 12, 12, 2
	octave 3
	note G#,2
	note B_,4
	note_type 12, 12, 7
	note B_,6
	note_type 12, 6, 10
	octave 4
	note D_,4
	db sound_loop_cmd, 0
	dw .loop20
;----------------------------------------
fight05_Ch3:
;----------------------------------------
; P3-1
	note_type 12, 2, 8
	octave 4
	note C#,1
	note C_,1
	octave 3
	note B_,1
	note A#,1
	note A_,4
	note A#,1
	note A_,1
	note G#,1
	note G_,1
	note F#,4
; P3-2
	note G_,1
	note F#,1
	note F_,1
	note E_,1
	note D#,4
	note E_,1
	note D#,1
	note D_,1
	note C#,1
	note C#,2
	note D_,2
; P3-3
	note D#,2
	note C#,2
	note D#,2
	note F#,4
	note E_,2
	note D#,2
	note C#,2
; P3-4
	note D#,2
	note C#,2
	note D#,2
	note F#,4
	note E_,2
	note D#,2
	note C#,2
; P3-5
	note D#,2
	note C#,2
	note D#,2
	note F#,4
	note E_,2
	note D#,2
	note C#,2
; P3-6
	note D#,2
	note C#,2
	note D#,2
	note F#,4
	note E_,2
	note D#,2
	note C#,2
; P3-7
	note C#,2
	octave 2
	note B_,2
	octave 3
	note C#,2
	note E_,4
	note D_,2
	note C#,2
	octave 2
	note B_,2
; P3-8
	octave 3
	note C#,2
	octave 2
	note B_,2
	octave 3
	note C#,2
	note E_,4
	note D_,2
	note C#,2
	octave 2
	note B_,2
; P3-9
	octave 3
	note C#,2
	octave 2
	note B_,2
	octave 3
	note C#,2
	note E_,4
	note D_,2
	note C#,2
	octave 2
	note B_,2
; P3-10
	octave 3
	note C#,2
	note E_,2
	note C#,2
	octave 2
	note B_,4
	octave 3
	note C_,2
	note C#,2
	note D_,2
.loop30
; P3-11
	octave 2
	note A#,2
	octave 3
	note D#,2
	octave 2
	note A#,2
	octave 3
	note D#,2
	octave 2
	note A#,2
	octave 3
	note D#,2
	octave 2
	note A#,2
	octave 3
	note D#,2
; P3-12
	octave 2
	note A#,2
	octave 4
	note C#,2
	octave 2
	note A#,2
	octave 3
	note B_,2
	octave 2
	note A#,2
	octave 3
	note A#,2
	octave 2
	note A#,2
	octave 3
	note G#,2
; P3-13
	note C#,2
	note G#,2
	octave 4
	note C#,2
	octave 3
	note G#,4
	octave 4
	note C#,2
	octave 3
	note C#,2
	note G#,2
; P3-14
	note C#,2
	note G#,2
	octave 4
	note C#,2
	octave 3
	note G#,4
	note C#,2
	note C_,2
	octave 2
	note B_,2
; P3-15
	note A#,2
	octave 3
	note D#,2
	octave 2
	note A#,2
	octave 3
	note D#,2
	octave 2
	note A#,2
	octave 3
	note D#,2
	octave 2
	note A#,2
	octave 3
	note D#,2
; P3-16
	octave 2
	note A#,2
	octave 3
	note A#,2
	octave 2
	note A#,2
	octave 3
	note G#,2
	octave 2
	note A#,2
	octave 3
	note F#,2
	octave 2
	note A#,2
	octave 3
	note F_,2
; P3-17
	note C#,2
	note G#,2
	octave 4
	note C#,2
	octave 3
	note G#,4
	octave 4
	note C#,2
	octave 3
	note C#,2
	note G#,2
; P3-18
	note C#,2
	note G#,2
	note C#,2
	note G#,2
	note C#,2
	note G#,2
	note C#,2
	note G#,2
; P3-19
	octave 2
	note B_,2
	octave 3
	note F#,2
	octave 2
	note B_,2
	octave 3
	note F#,2
	octave 2
	note B_,2
	octave 3
	note F#,2
	octave 2
	note B_,2
	octave 3
	note F#,2
; P3-20
	octave 2
	note B_,2
	octave 3
	note F#,2
	octave 2
	note B_,2
	octave 3
	note F#,2
	octave 2
	note B_,2
	octave 3
	note F#,2
	note G#,2
	note F#,2
; P3-21
	octave 2
	note A#,2
	octave 3
	note F_,2
	octave 2
	note A#,2
	octave 3
	note F_,2
	octave 2
	note A#,2
	octave 3
	note F_,2
	octave 2
	note A#,2
	octave 3
	note F_,2
; P3-22
	octave 2
	note A#,2
	octave 3
	note F#,2
	octave 2
	note A#,2
	octave 3
	note F#,2
	octave 2
	note A#,2
	octave 3
	note F#,2
	note F_,2
	note D#,2
; P3-23
	octave 2
	note B_,2
	octave 3
	note F#,2
	octave 2
	note B_,2
	octave 3
	note F#,2
	octave 2
	note B_,2
	octave 3
	note F#,2
	octave 2
	note B_,2
	octave 3
	note F#,2
; P3-24
	octave 2
	note B_,2
	octave 3
	note F#,2
	octave 2
	note B_,2
	octave 3
	note F#,2
	octave 2
	note B_,2
	octave 3
	note F#,2
	octave 2
	note B_,2
	octave 3
	note D_,2
; P3-25
	note D#,2
	note A#,2
	octave 4
	note D#,2
	octave 3
	note D#,2
	note A#,2
	octave 4
	note D#,2
	octave 3
	note D#,2
	octave 4
	note D#,2
; P3-26
	octave 3
	note D#,2
	note A#,2
	octave 4
	note D#,2
	octave 3
	note D#,2
	note A#,2
	octave 4
	note D#,2
	octave 3
	note D#,2
	note A#,2
; P3-27
	note E_,2
	note B_,2
	octave 4
	note E_,2
	octave 3
	note E_,2
	note B_,2
	octave 4
	note E_,2
	octave 3
	note E_,2
	octave 4
	note E_,2
; P3-28
	octave 3
	note E_,2
	note B_,2
	octave 4
	note E_,2
	octave 3
	note E_,2
	note E_,2
	note F#,2
	note G_,2
	note G#,2
; P3-29
	note D#,2
	note A#,2
	note D#,2
	note A#,2
	note D#,2
	note A#,2
	note D#,2
	note A#,2
; P3-30
	note D#,2
	note A_,2
	note D#,2
	note A_,2
	note D#,2
	note A_,2
	note D#,2
	note A_,2
; P3-31
	note D#,2
	note G#,2
	note D#,2
	note G#,2
	note D#,2
	note G#,2
	note D#,2
	note G#,2
; P3-32
	note D#,2
	note G_,2
	note D#,2
	note G_,2
	note D#,2
	note G_,2
	note D#,2
	note G_,2
; P3-33
	note D#,2
	note G_,2
	note D#,2
	note G_,2
	note D#,2
	note G_,2
	note D#,2
	note G_,2
; P3-34
	note D#,2
	note G_,2
	note D#,2
	note G_,2
	note D#,2
	note G_,2
	note D#,2
	note G_,2
; P3-35
	octave 2
	note B_,2
	octave 3
	note D#,2
	octave 2
	note B_,2
	octave 3
	note D#,2
	octave 2
	note B_,2
	octave 3
	note D#,2
	octave 2
	note B_,2
	octave 3
	note D#,2
; P3-36
	octave 2
	note B_,2
	octave 3
	note F#,2
	octave 2
	note B_,2
	octave 3
	note F#,2
	octave 2
	note B_,2
	octave 3
	note F#,2
	octave 2
	note B_,2
	octave 3
	note F#,2
; P3-37
	note D#,2
	note G_,2
	note A#,2
	note D#,2
	note G_,2
	note A#,2
	note D#,2
	note A#,2
; P3-38
	note D#,2
	note G_,2
	note A#,2
	note D#,2
	note G_,2
	note A#,2
	note D#,2
	note A#,2
; P3-39
	octave 2
	note B_,2
	octave 3
	note G_,2
	note B_,2
	octave 2
	note B_,2
	octave 3
	note G_,2
	note B_,2
	octave 2
	note B_,2
	octave 3
	note B_,2
; P3-40
	octave 2
	note B_,2
	octave 3
	note G#,2
	note B_,2
	octave 2
	note B_,2
	octave 4
	note D#,2
	note C#,2
	octave 3
	note B_,2
	note G#,2
; P3-41
	note G_,8
	note D#,8
; P3-42
	note A#,8
	note G_,8
; P3-43
	octave 2
	note B_,8
	octave 3
	note C#,8
; P3-44
	note D#,8
	note F_,8
; P3-45
	octave 2
	note A#,2
	octave 3
	note D#,2
	octave 2
	note A#,2
	octave 3
	note D#,2
	octave 2
	note A#,2
	octave 3
	note D#,2
	octave 2
	note A#,2
	octave 3
	note D#,2
; P3-46
	octave 2
	note A#,2
	octave 3
	note D#,2
	octave 2
	note A#,2
	octave 3
	note D#,2
	octave 2
	note A#,2
	octave 3
	note D#,2
	note E_,2
	note D#,2
; P3-47
	octave 2
	note A#,2
	octave 3
	note D#,2
	octave 2
	note A#,2
	octave 3
	note D#,2
	octave 2
	note A#,2
	octave 3
	note D#,2
	octave 2
	note A#,2
	octave 3
	note D#,2
; P3-48
	octave 2
	note A#,2
	octave 3
	note D#,2
	octave 2
	note A#,2
	octave 3
	note D#,2
	octave 2
	note A#,2
	octave 3
	note F#,2
	note F_,2
	note E_,2
; P3-49
	octave 2
	note G#,2
	octave 3
	note C#,2
	octave 2
	note G#,2
	octave 3
	note C#,2
	octave 2
	note G#,2
	octave 3
	note C#,2
	octave 2
	note G#,2
	octave 3
	note C#,2
; P3-50
	octave 2
	note G#,2
	octave 3
	note C#,2
	octave 2
	note G#,2
	octave 3
	note C#,2
	octave 2
	note G#,2
	octave 3
	note C#,2
	note D_,2
	note C#,2
; P3-51
	octave 2
	note G#,2
	octave 3
	note C#,2
	octave 2
	note G#,2
	octave 3
	note C#,2
	octave 2
	note G#,2
	octave 3
	note C#,2
	octave 2
	note G#,2
	octave 3
	note C#,2
; P3-52
	octave 2
	note B_,2
	note G#,2
	note B_,2
	octave 3
	note F_,4
	note E_,2
	note D#,2
	note D_,2
	db sound_loop_cmd, 0
	dw .loop30


