Music_VsBlue:
	musicheader 3, 1, Music_VsBlue_Ch1
	musicheader 1, 2, Music_VsBlue_Ch2
	musicheader 1, 3, Music_VsBlue_Ch3

Music_VsBlue_Ch1:
	tempo 98
	volume $77
	dutycycle $3
	tone $0002
	vibrato $12, $15
	notetype $c, $b5
	octave 3
	note E_, 2
	note __, 6
	note F_, 2
	note __, 6
	note G_, 2
	note __, 6
	note F_, 2
	note __, 6
	note E_, 1
	note __, 1
	note E_, 4
	note __, 2
	note F_, 1
	note __, 1
	note F_, 4
	note __, 2
	note G_, 1
	note __, 1
	note G_, 4
	note __, 2
	note F_, 1
	note __, 1
	note F_, 4
	note __, 2
	note E_, 1
	note E_, 1
	note __, 2
	octave 4
	note E_, 4
	octave 3
	note F_, 1
	note F_, 1
	note __, 2
	octave 4
	note E_, 4
	octave 3
	note G_, 1
	note G_, 1
	note __, 2
	octave 4
	note E_, 4
	octave 3
	note F_, 1
	note F_, 1
	note __, 2
	octave 4
	note E_, 4
	octave 3
	note E_, 1
	note E_, 1
	note __, 2
	octave 4
	note E_, 4
	octave 3
	note F_, 1
	note F_, 1
	note __, 2
	octave 4
	note E_, 4
	octave 3
	note G_, 1
	note G_, 1
	note __, 2
	octave 4
	note E_, 4
	octave 3
	note F_, 1
	note __, 2
	note F_, 1
	note __, 2
	note A_, 1
	note __, 1
Music_VsBlueCh1Looppoint:
	note G_, 6
	note B_, 6
	note G_, 4
	note A#, 4
	note A_, 4
	note F#, 8
	note F_, 4
	note F#, 12
	note F#, 8
	note A_, 8
	note G_, 6
	note B_, 6
	note G_, 4
	note A#, 4
	note A_, 4
	note F#, 8
	note F_, 4
	note F#, 12
	note A#, 4
	note B_, 12
	note G_, 8
	note B_, 8
	intensity $92
	octave 4
	note C_, 1
	octave 3
	note A_, 1
	note G_, 1
	note A_, 1
	octave 4
	note C_, 1
	octave 3
	note A_, 1
	note G_, 1
	note A_, 1
	octave 4
	note C_, 1
	octave 3
	note A_,1
	note G_, 1
	note A_, 1
	octave 4
	note C_, 1
	octave 3
	note A_, 1
	note G_, 1
	note A_, 1
	intensity $b5
	note B_, 1
	note B_, 2
	note __, 5
	note G_, 1
	note G_, 2
	note __, 5
	octave 4
	note C_, 1
	note C_, 2
	note __, 5
	octave 3
	note A_, 4
	octave 4
	note C_, 4
	octave 3
	note B_, 8
	note G_, 8
	octave 4
	note C_, 4
	octave 3
	note B_, 4
	note A_, 4
	note F#, 4
	note G_, 14
	note F#, 2
	note E_, 8
	note G_, 8
	note A_, 12
	note G_, 4
	note F_, 8
	note A_, 8
	note A#, 8
	note G#, 8
	note F#, 8
	note A#, 8
	note __, 16
	
	note A#, 6
	note A#, 1
	note A#, 1
	notetype $4, $b5
	note A#, 4
	note __, 4
	note A#, 4
	note __, 4
	note A#, 4
	note __, 4
	notetype $c, $b5
	octave 2
	note A#, 6
	note A#, 1
	note A#, 1
	notetype $4, $b5
	octave 3
	note C#, 4
	note __, 4
	note C#, 4
	note __, 4
	note C#, 4
	note __, 4
	notetype $c, $b5
	note G_, 8
	note D_, 8
	note B_, 8
	note G_, 4
	note G_, 1
	note F#, 1
	note G_, 1
	note G#, 1
	
	note A_, 6
	note A_, 1
	note A_, 1
	notetype $4, $b5
	note A_, 4
	note __, 4
	note A_, 4
	note __, 4
	note A_, 4
	note __, 4
	notetype $c, $b5
	note C#, 6
	note C#, 1
	note C#, 1
	notetype $4, $b5
	note E_, 4
	note __, 4
	note E_, 4
	note __, 4
	note E_, 4
	note __, 4
	notetype $c, $b5
	note A#, 8
	note G_, 5
	note A_, 1
	note A#, 1
	octave 4
	note D_, 1
	note F_, 4
	note D_, 4
	octave 3
	note A#, 4
	octave 4
	note D_, 4
	note C#, 4
	note E_, 12
	octave 3
	note A_, 4
	octave 4
	note C#, 12
	octave 2
	note G_, 16
	octave 3
	note D_, 1
	note __, 1
	note C#, 1
	note __, 1
	octave 2
	note B_, 1
	note __, 1
	octave 3
	note C#, 1
	note __, 1
	note D_, 1
	note __, 1
	octave 2
	note B_, 1
	note __, 1
	octave 3
	note F#, 1
	note __, 1
	note D_, 1
	note __, 1
	
	note G_, 16
	note G_, 8
	note E_, 8
	note E_, 4
	note D#, 12
	note F#, 8
	note A_, 8
	note G_, 16
	note G_, 8
	note E_, 8
	note E_, 4
	note D#, 12
	note F#, 8
	note A_, 8
	note B_, 16
	octave 4
	note D#, 4
	note E_, 12
	octave 3
	loopchannel 0, Music_VsBlueCh1Looppoint
	endchannel

Music_VsBlue_Ch2:
	dutycycle $3
	vibrato $8, $36
	tone $0001
	notetype $c, $c5
	octave 4
	note E_, 2
	note __, 6
	note E_, 2
	note __, 6
	note E_, 2
	note __, 6
	note E_, 2
	note __, 6
	note E_, 1
	note __, 1
	note E_, 2
	octave 5
	note E_, 4
	octave 4
	note E_, 1
	note __, 1
	note E_, 2
	octave 5
	note E_, 4
	octave 4
	note E_, 1
	note __, 1
	note E_, 2
	octave 5
	note E_, 4
	octave 4
	note E_, 1
	note __, 1
	note E_, 2
	octave 5
	note D#, 4
	octave 4
	note E_, 1
	note E_, 1
	note G_, 1
	octave 5
	note C_, 1
	note E_, 1
	note C_, 1
	octave 4
	note G_, 1
	note F_, 1
	note E_, 1
	note E_, 1
	note G_, 1
	octave 5
	note C_, 1
	note E_, 1
	note C_, 1
	octave 4
	note G_, 1
	note F_, 1
	note E_, 1
	note E_, 1
	note G_, 1
	octave 5
	note C_, 1
	note E_, 1
	note C_, 1
	octave 4
	note G_, 1
	note F_, 1
	note E_, 1
	note E_, 1
	note G_, 1
	octave 5
	note C_, 1
	note E_, 1
	note C_, 1
	octave 4
	note G_, 1
	note F_, 1
	note E_, 1
	note E_, 1
	note G_, 1
	octave 5
	note C_, 1
	note E_, 1
	note C_, 1
	octave 4
	note G_, 1
	note F_, 1
	note E_, 1
	note E_, 1
	note G_, 1
	octave 5
	note C_, 1
	note E_, 1
	note C_, 1
	octave 4
	note G_, 1
	note F_, 1
	note E_, 1
	note E_, 1
	note G_, 1
	octave 5
	note C_, 1
	note E_, 1
	note C_, 1
	octave 4
	note G_, 1
	note F_, 1
	note E_, 1
	note __, 2
	note E_, 1
	note __, 2
	note D#, 1
	note __, 1
Music_VsBlueCh2Looppoint:
	note E_, 8
	note D#, 8
	note D_, 8
	octave 3
	note B_, 8
	note A#, 4
	note B_, 12
	octave 2
	note A#, 1
	note __, 1
	note B_, 1
	note __, 2
	octave 3
	note A_, 1
	note B_, 1
	note A_, 1
	octave 4
	note C_, 1
	octave 3
	note B_, 1
	note __, 1
	note A_, 1
	note B_, 1
	note F#, 1
	note A_, 1
	note B_, 1
	
	octave 4
	note E_, 8
	note D#, 8
	note D_, 8
	octave 3
	note B_, 8
	note A#, 4
	note B_, 8
	note __, 4
	octave 4
	note D#, 4
	note E_, 12
	octave 3
	note B_, 8
	octave 4
	note D_, 8
	note F_, 8
	note D_, 8
	
	note E_, 1
	note E_, 2
	note __, 5
	note E_, 1
	note E_, 2
	note __, 5
	note E_, 1
	note E_, 2
	note __, 5
	note E_, 4
	note D#, 4
	note E_, 1
	note E_, 1
	note D_, 1
	note E_, 1
	note F_, 1
	note E_, 1
	note D_, 1
	note F_, 1
	note E_, 1
	note E_, 1
	note F#, 1
	note F_, 1
	note E_, 1
	note D#, 1
	note D_, 1
	note F_, 1
	note E_, 1
	note E_, 1
	note F_, 1
	note E_, 1
	note D_, 1
	note C#, 1
	note D_, 1
	note D#, 1
	note E_, 2
	octave 3
	note B_, 2
	octave 4
	note B_, 2
	octave 3
	note B_, 2
	
	octave 4
	note E_, 4
	note F_, 2
	note F#, 8
	note __, 4
	octave 3
	note B_, 2
	note B_, 2
	note __, 2
	note B_, 2
	note B_, 2
	note __, 2
	note B_, 2
	octave 4
	note F_, 4
	note F#, 2
	note G_, 8
	note __, 4
	note C_, 2
	note C_, 2
	note __, 2
	note C_, 2
	note C_, 2
	note __, 2
	note C_, 2
	note F#, 4
	note G_, 2
	note G#, 8
	note __, 4
	note C#, 2
	note C#, 2
	note __, 2
	note C#, 2
	note C#, 2
	note __, 2
	note C#, 2
	note __, 2
	note C#, 2
	note C#, 2
	note __, 2
	note C#, 2
	note C#, 2
	note __, 2
	note E_, 1
	note F_, 1
	
	note F#, 6
	note F#, 1
	note F#, 1
	notetype $4, $b5
	note F#, 4
	note __, 4
	note F#, 4
	note __, 4
	note F#, 4
	note __, 4
	notetype $c, $b5
	octave 3
	note F#, 6
	note F#, 1
	note F#, 1
	notetype $4, $b5
	note A#, 4
	note __, 4
	note A#, 4
	note __, 4
	note A#, 4
	note __, 4
	notetype $c, $b5
	octave 4
	note C#, 8
	note D_, 16
	note __, 8
	
	note E_, 6
	note E_, 1
	note E_, 1
	notetype $4, $b5
	note E_, 4
	note __, 4
	note E_, 4
	note __, 4
	note E_, 4
	note __, 4
	notetype $c, $b5
	octave 3
	note A_, 6
	note A_, 1
	note A_, 1
	notetype $4, $b5
	octave 4
	note C#, 4
	note __, 4
	note C#, 4
	note __, 4
	note C#, 4
	note __, 4
	notetype $c, $b5
	note F_, 16
	octave 5
	note C_, 8
	octave 4
	note A#, 8
	note A_, 16
	note A_, 16
	
	note D_, 2
	note C#, 2
	octave 3
	note B_, 2
	octave 4
	note C#, 2
	note D_, 2
	note C#, 2
	note F#, 2
	note D_, 2
	note D_, 1
	note __, 1
	note C#, 1
	note __, 1
	octave 3
	note B_, 1
	note __, 1
	octave 4
	note C#, 1
	note __, 1
	note D_, 1
	note __, 1
	note C#, 1
	note __, 1
	note F#, 1
	note __, 1
	note D_, 1
	note __, 1
	
	note E_, 8
	note D#, 8
	note D_, 8
	octave 3
	note B_, 8
	note A#, 4
	note B_, 12
	note __, 16
	octave 4
	note E_, 8
	note D#, 8
	note D_, 8
	octave 3
	note B_, 8
	note A#, 4
	note B_, 12
	octave 4
	note D_, 8
	note F_, 8
	note E_, 16
	note A#, 4
	note B_, 12
	loopchannel 0, Music_VsBlueCh2Looppoint
	endchannel

Music_VsBlue_Ch3:
	notetype $c, $14
	octave 3
	note E_, 1
	note E_, 1
	note __, 6
	note F_, 1
	note F_, 1
	note __, 6
	note G_, 1
	note G_, 1
	note __, 6
	note F_, 1
	note F_, 1
	note __, 2
	note D#, 4
	note E_, 1
	note __, 1
	note E_, 2
	note B_, 4
	note E_, 1
	note __, 1
	note E_, 2
	octave 4
	note C_, 4
	octave 3
	note E_, 1
	note __, 1
	note E_, 2
	octave 4
	note D_, 4
	octave 3
	note E_, 1
	note __, 1
	note E_, 2
	octave 4
	note C_, 4
	octave 3
	note E_, 1
	note E_, 1
	note __, 2
	note B_, 4
	note E_, 1
	note E_, 1
	note __, 2
	octave 4
	note C_, 4
	octave 3
	note E_, 1
	note E_, 1
	note __, 2
	octave 4
	note D_, 4
	octave 3
	note E_, 1
	note E_, 1
	octave 4
	note C_, 4
	note D_, 2
	octave 3
	note E_, 1
	note E_, 1
	note __, 2
	note B_, 4
	note E_, 1
	note E_, 1
	note __, 2
	octave 4
	note C_, 4
	octave 3
	note E_, 1
	note E_, 1
	note __, 2
	octave 4
	note D_, 4
	octave 3
	note E_,1
	note __, 2
	note E_, 1
	note __, 2
	note E_, 1
	note __, 1
Music_VsBlueCh3Looppoint:
	note E_, 2
	note B_, 2
	note E_, 2
	note B_, 2
	note D#, 2
	note A#, 2
	note D#, 2
	note A#, 2
	note D_, 2
	note A_, 2
	note D_, 2
	note A_, 2
	octave 2
	note B_, 2
	octave 3
	note F#, 2
	octave 2
	note B_, 2
	octave 3
	note F#, 2
	note D_, 4
	note D#, 4
	octave 2
	note B_, 2
	octave 3
	note F#, 2
	octave 2
	note B_, 2
	octave 3
	note F#, 2
	octave 2
	note B_, 2
	octave 3
	note F#, 2
	note D#, 2
	note E_, 2
	note F#, 2
	note E_, 2
	note D#, 2
	note F#, 2
	note E_, 2
	note B_, 2
	note E_, 2
	note B_, 2
	note D#, 2
	note A#, 2
	note D#, 2
	note A#, 2
	note D_, 2
	note A_, 2
	note D_, 2
	note A_, 2
	octave 2
	note B_, 2
	octave 3
	note F#, 2
	octave 2
	note B_, 2
	octave 3
	note F#, 2
	note D_, 4
	note D#, 4
	octave 2
	note B_, 2
	octave 3
	note F#, 2
	octave 2
	note B_, 1
	note A#, 1
	note B_, 1
	octave 3
	note D#, 1
	note F#, 4
	note G_, 4
	note E_, 2
	note B_, 2
	note E_, 2
	note B_, 2
	note E_, 2
	note B_, 2
	note E_, 2
	note B_, 2
	note E_, 2
	note B_, 2
	note E_, 2
	note B_, 2
	note E_, 2
	note B_, 2
	note G_, 2
	note A_, 2
	note B_, 2
	note A_, 2
	note G_, 2
	note F#, 2
	
	note E_, 1
	note E_, 2
	note __, 1
	note D_, 4
	note E_, 1
	note E_, 2
	note __, 1
	note F_, 4
	note E_, 1
	note E_, 2
	note __, 1
	note D_, 4
	note D#, 2
	octave 2
	note B_, 4
	octave 3
	note D_, 2
	note E_, 4
	note D_, 4
	note E_, 4
	note F_, 4
	note E_, 4
	octave 2
	note B_, 2
	octave 3
	note F#, 2
	note B_, 2
	note A_, 2
	note G_, 2
	note F#, 2
	
	note E_, 2
	note B_, 2
	note E_, 2
	note B_, 2
	note E_, 2
	note B_, 2
	note E_, 2
	note B_, 2
	note E_, 1
	note E_, 1
	octave 2
	note B_, 1
	note __, 1
	note B_, 1
	note __, 1
	octave 3
	note E_, 1
	note E_, 1
	octave 2
	note B_, 1
	note __, 1
	note B_, 1
	note __, 1
	octave 3
	note E_, 1
	note E_, 1
	octave 2
	note B_, 1
	note __, 1
	
	octave 3
	note F_, 2
	octave 4
	note C_, 2
	octave 3
	note F_, 2
	octave 4
	note C_, 2
	octave 3
	note F_, 2
	octave 4
	note C_, 2
	octave 3
	note F_, 2
	octave 4
	note C_, 2
	octave 3
	note F_, 1
	note F_, 1
	note C_, 1
	note __, 1
	note C_, 1
	note __, 1
	note F_, 1
	note F_, 1
	note C_, 1
	note __, 1
	note C_, 1
	note __, 1
	note F_, 1
	note F_, 1
	note C_, 1
	note __, 1
	
	note F#, 2
	octave 4
	note C#, 2
	octave 3
	note F#, 2
	octave 4
	note C#, 2
	octave 3
	note F#, 2
	octave 4
	note C#, 2
	octave 3
	note F#, 2
	octave 4
	note C#, 2
	octave 3
	note F#, 1
	note F#, 1
	note C#, 1
	note __, 1
	note C#, 1
	note __, 1
	note F#, 1
	note F#, 1
	note C#, 1
	note __, 1
	note C#, 1
	note __, 1
	note F#, 1
	note F#, 1
	note C#, 1
	note __, 1
	note F#, 1
	note F#, 1
	note C#, 1
	note __, 1
	note C#, 1
	note __, 1
	note F#, 1
	note F#, 1
	note C#, 1
	note __, 1
	note C#, 1
	note __, 1
	note C#, 2
	octave 2
	note A#, 2
	
	note F#, 6
	note A#, 6
	octave 3
	note C#, 4
	note F#, 8
	note C#, 4
	note F#, 4
	note G_, 2
	octave 4
	note D_, 2
	octave 3
	note G_, 2
	octave 4
	note D_, 2
	octave 3
	note G_, 2
	octave 4
	note D_, 2
	octave 3
	note G_, 2
	octave 4
	note D_, 2
	octave 3
	note G_, 2
	octave 4
	note D_, 2
	octave 3
	note G_, 2
	octave 4
	note D_, 2
	octave 3
	note G_, 2
	octave 4
	note D_, 2
	octave 3
	note G_, 2
	note D_, 2
	
	octave 2
	note A_, 6
	octave 3
	note C#, 6
	note E_, 4
	note A_, 8
	note E_, 4
	note A_, 4
	note A#, 2
	octave 4
	note F_, 2
	octave 3
	note A#, 2
	octave 4
	note F_, 2
	octave 3
	note A#, 2
	octave 4
	note F_, 2
	octave 3
	note A#, 2
	octave 4
	note F_, 2
	octave 3
	note A#, 2
	octave 4
	note F_, 2
	octave 3
	note A#, 2
	octave 4
	note F_, 2
	octave 3
	note A#, 2
	octave 4
	note F_, 2
	octave 3
	note A#, 2
	octave 4
	note F_, 2
	octave 3
	
	note A_, 2
	octave 4
	note E_, 2
	octave 3
	note A_, 2
	octave 4
	note E_, 2
	octave 3
	note A_, 2
	octave 4
	note E_, 2
	octave 3
	note A_, 2
	octave 4
	note E_, 2
	octave 3
	note A_, 2
	octave 4
	note E_, 2
	octave 3
	note A_, 2
	octave 4
	note E_, 2
	octave 3
	note A_, 2
	octave 4
	note E_, 2
	octave 3
	note A_, 2
	octave 4
	note E_, 2
	note D_, 16
	
	octave 3
	note D_, 1
	note __, 1
	note C#, 1
	note __, 1
	octave 2
	note B_, 1
	note __, 1
	octave 3
	note C#, 1
	note __, 1
	note D_, 1
	note __, 1
	octave 2
	note B_, 1
	note __, 1
	note B_, 1
	octave 3
	note C#, 1
	note D_, 1
	note D#, 1
	
	note E_, 13
	note F#, 1
	note G_, 1
	note A_, 1
	note B_, 13
	note A#, 1
	note A_, 1
	note G_, 1
	note F#, 12
	note E_, 4
	note D#, 8
	octave 2
	note B_, 8
	
	octave 3
	note E_, 13
	note F#, 1
	note G_, 1
	note A_, 1
	note B_, 8
	note E_, 8
	note F#, 12
	octave 4
	note C_, 4
	octave 3
	note B_, 16
	
	note E_, 2
	note E_, 2
	octave 4
	note E_, 2
	octave 3
	note E_, 2
	note E_, 2
	octave 4
	note D#, 2
	octave 3
	note E_, 2
	note E_, 2
	octave 4
	note D_, 2
	octave 3
	note E_, 2
	note E_, 2
	octave 4
	note C#, 2
	octave 3
	note E_, 2
	note A_, 2
	note B_, 4
	loopchannel 0, Music_VsBlueCh3Looppoint
	endchannel
